<?xml version="1.0" encoding="UTF-8"?>
<!-- Generator: visioncortex VTracer 0.6.12 -->
<svg version="1.1" xmlns="http://www.w3.org/2000/svg" viewBox="178 138 898 900">
<path d="M0 0 C1.5 -0.01 3.01 -0.01 4.55 -0.02 C9.56 -0.04 14.57 -0.05 19.58 -0.06 C21.29 -0.07 23 -0.07 24.77 -0.07 C33.85 -0.09 42.94 -0.11 52.03 -0.12 C61.36 -0.13 70.7 -0.16 80.04 -0.2 C87.25 -0.23 94.47 -0.24 101.68 -0.24 C105.12 -0.25 108.56 -0.26 112 -0.28 C154.49 -0.49 202.42 4.03 227.76 43.18 C244.92 73.32 246.41 110.71 229.91 141.65 C225.63 148.95 220.65 155.12 214.76 161.18 C213.69 162.35 212.62 163.53 211.51 164.74 C192.8 181.89 164.42 194.18 138.76 194.18 C138.76 194.84 138.76 195.5 138.76 196.18 C140.41 196.84 142.06 197.5 143.76 198.18 C166.88 213.97 181.43 241.46 197.01 264.18 C200.15 268.74 203.33 273.27 206.51 277.8 C211.49 284.89 216.4 292.02 221.26 299.18 C228.33 309.58 235.52 319.89 242.76 330.18 C243.82 331.67 244.87 333.17 245.95 334.71 C248.89 338.87 251.82 343.03 254.76 347.18 C255.6 348.37 256.44 349.56 257.31 350.78 C266.8 364.16 276.69 377.23 286.76 390.18 C287.4 391 288.04 391.83 288.7 392.68 C328.42 443.09 381.61 488.68 450.33 478.99 C459.09 477.48 467.37 475.08 475.76 472.18 C477.58 471.58 479.39 470.98 481.26 470.36 C482.42 469.97 483.57 469.58 484.76 469.18 C484.76 473.18 484.76 473.18 482.19 474.92 C457.72 486.57 433.15 492.54 406.08 492.49 C405.27 492.5 405.27 492.5 401.22 492.54 C338.67 492.56 282.02 451.9 245.76 403.18 C244.14 401.09 242.52 399.01 240.89 396.93 C221.55 371.71 203.84 345.22 185.91 319 C180.31 310.84 174.65 302.74 168.93 294.66 C164.93 288.99 160.95 283.31 156.98 277.62 C153.24 272.27 149.47 266.94 145.7 261.61 C141.44 255.6 137.27 249.53 133.14 243.43 C102.88 199.12 102.88 199.12 80.33 193.29 C79.49 192.92 78.64 192.56 77.76 192.18 C77.76 187.18 77.76 187.18 78.76 186.18 C81.62 186.04 84.48 185.97 87.34 185.93 C89.12 185.9 90.9 185.87 92.74 185.83 C96.5 185.77 100.25 185.71 104.01 185.66 C128.59 185.19 150.44 181.44 169.76 165.18 C170.17 164.88 170.17 164.88 172.21 163.36 C195.95 143.1 202.77 103.25 198.51 74.14 C193.02 45.09 176.8 24.13 148.76 14.18 C135.3 10.32 122.48 9.02 108.54 9.08 C107.2 9.08 105.86 9.08 104.48 9.08 C100.22 9.09 95.96 9.1 91.7 9.11 C88.8 9.12 85.91 9.12 83.01 9.13 C75.93 9.14 68.84 9.16 61.76 9.18 C61.69 52.45 61.64 95.72 61.61 138.99 C61.6 142.99 61.6 147 61.6 151 C61.6 151.99 61.6 152.99 61.6 154.01 C61.58 169.1 61.56 184.18 61.54 199.27 C61.51 216.78 61.49 234.3 61.48 251.81 C61.48 261.09 61.47 270.36 61.45 279.63 C61.43 288.36 61.42 297.1 61.42 305.83 C61.42 309.03 61.42 312.23 61.41 315.43 C61.24 364.88 61.24 364.88 78.76 376.18 C83.62 378.2 87.52 379.16 92.76 379.61 C94.08 379.8 95.4 379.99 96.76 380.18 C97.76 384.18 97.76 384.18 96.76 385.18 C93.34 385.29 89.91 385.34 86.48 385.35 C85.4 385.36 84.31 385.37 83.2 385.37 C79.61 385.39 76.01 385.41 72.42 385.42 C71.2 385.42 69.97 385.42 68.72 385.43 C62.25 385.45 55.78 385.46 49.32 385.47 C42.62 385.48 35.91 385.52 29.21 385.56 C24.08 385.58 18.94 385.59 13.81 385.6 C11.34 385.6 8.87 385.61 6.4 385.63 C2.95 385.65 -0.5 385.65 -3.95 385.65 C-4.93 385.65 -4.93 385.65 -9.91 385.66 C-11.34 385.5 -12.77 385.34 -14.24 385.18 C-14.57 383.86 -14.9 382.54 -15.24 381.18 C-11.28 379.75 -7.33 378.73 -3.24 377.8 C7.71 375.08 13.41 368.92 16.76 358.18 C18.01 351.87 17.91 345.6 17.91 339.19 C17.91 337.87 17.92 336.54 17.92 335.18 C17.93 330.73 17.94 326.28 17.94 321.84 C17.95 318.65 17.95 315.47 17.96 312.28 C17.98 301.82 17.99 291.35 18 280.88 C18.01 277.28 18.01 273.68 18.01 270.08 C18.03 253.16 18.05 236.23 18.06 219.31 C18.07 199.78 18.09 180.24 18.13 160.7 C18.16 145.6 18.18 130.5 18.18 115.4 C18.18 106.38 18.19 97.36 18.22 88.35 C18.24 79.86 18.24 71.38 18.23 62.89 C18.23 59.78 18.24 56.67 18.25 53.55 C18.27 49.3 18.26 45.05 18.25 40.8 C18.26 39.57 18.27 38.34 18.28 37.08 C18.2 25.38 16 16.1 5.76 9.18 C0.28 7.29 -4.59 6.23 -10.36 5.74 C-11.64 5.55 -12.92 5.37 -14.24 5.18 C-16.41 -3.51 -6.21 0.01 0 0 Z M167.76 13.18 C170.66 16.26 173.58 18.8 176.95 21.36 C204.42 42.59 212.25 75.93 208.11 109.42 C202.95 137.71 189.63 165.75 162.76 179.18 C162.76 179.84 162.76 180.5 162.76 181.18 C170.84 179.06 176.35 175.29 182.76 170.18 C183.43 169.65 183.43 169.65 186.83 166.99 C213.23 141.42 221.48 101.99 214.2 66.68 C208.08 42.75 194.11 22.52 170.76 13.18 C169.77 13.18 168.78 13.18 167.76 13.18 Z M25.76 19.18 C25.93 20.55 26.09 21.92 26.25 23.33 C26.82 29.81 26.91 36.18 26.9 42.68 C26.91 44.01 26.91 45.34 26.91 46.71 C26.92 51.16 26.92 55.6 26.92 60.05 C26.93 63.24 26.93 66.44 26.94 69.63 C26.95 78.29 26.96 86.96 26.96 95.62 C26.97 101.04 26.97 106.45 26.98 111.87 C26.99 128.82 27 145.76 27 162.71 C27.01 182.27 27.02 201.82 27.05 221.38 C27.07 236.5 27.09 251.63 27.09 266.75 C27.09 275.78 27.09 284.81 27.11 293.84 C27.13 302.33 27.13 310.82 27.12 319.32 C27.12 322.43 27.12 325.54 27.13 328.66 C27.15 332.91 27.14 337.17 27.13 341.43 C27.14 342.65 27.15 343.88 27.16 345.14 C27.11 352.97 25.89 359.64 23.76 367.18 C23.43 368.83 23.1 370.48 22.76 372.18 C29.74 368.69 31.32 362.49 32.76 355.18 C32.95 350.88 33.04 346.65 33.02 342.36 C33.03 341.07 33.03 339.79 33.04 338.47 C33.05 334.18 33.04 329.88 33.04 325.59 C33.04 322.51 33.05 319.43 33.05 316.35 C33.07 307.98 33.07 299.62 33.07 291.25 C33.06 284.26 33.07 277.28 33.07 270.29 C33.08 253.8 33.09 237.31 33.08 220.81 C33.07 203.82 33.09 186.82 33.11 169.82 C33.12 155.21 33.13 140.61 33.13 126.01 C33.13 117.29 33.13 108.57 33.14 99.86 C33.15 91.65 33.15 83.45 33.14 75.24 C33.14 72.24 33.14 69.24 33.15 66.23 C33.24 30.84 33.24 30.84 26.76 19.18 C26.43 19.18 26.1 19.18 25.76 19.18 Z " fill="#052244" transform="translate(386.236572265625,367.822998046875)"/>
<path d="M0 0 C-0.33 1.32 -0.66 2.64 -1 4 C-3.99 4.71 -6.99 5.37 -10 6 C-19.24 10.53 -20.75 19.53 -22 29 C-22.18 33.1 -22.28 37.13 -22.27 41.22 C-22.27 41.82 -22.27 41.82 -22.28 44.81 C-22.29 48.74 -22.29 52.68 -22.29 56.62 C-22.3 59.45 -22.3 62.28 -22.31 65.11 C-22.33 72.79 -22.33 80.47 -22.33 88.15 C-22.34 92.95 -22.34 97.75 -22.35 102.55 C-22.36 119.32 -22.37 136.09 -22.37 152.85 C-22.37 168.46 -22.39 184.06 -22.42 199.67 C-22.45 213.09 -22.46 226.5 -22.46 239.92 C-22.46 247.93 -22.46 255.93 -22.48 263.94 C-22.5 271.47 -22.5 279 -22.49 286.54 C-22.49 289.29 -22.49 292.05 -22.5 294.8 C-22.67 334.94 -22.67 334.94 -10.62 344.75 C-5.39 347.3 -0.6 348.25 5.12 349.13 C8 350 8 350 9 354 C6.87 356.13 1.51 355.16 -1.19 355.18 C-3.16 355.19 -5.14 355.2 -7.18 355.22 C-9.36 355.22 -11.54 355.23 -13.72 355.24 C-14.26 355.24 -14.26 355.24 -17.02 355.25 C-22.79 355.27 -28.55 355.29 -34.32 355.3 C-40.29 355.31 -46.27 355.34 -52.25 355.38 C-56.82 355.41 -61.4 355.41 -65.98 355.42 C-68.18 355.42 -70.39 355.44 -72.59 355.45 C-75.67 355.48 -78.74 355.47 -81.81 355.47 C-83.57 355.48 -85.32 355.48 -87.13 355.49 C-88.41 355.33 -89.68 355.17 -91 355 C-92 351 -92 351 -91 350 C-89.16 349.75 -87.33 349.5 -85.44 349.25 C-74.99 347.57 -69.19 342.7 -64.81 333.31 C-60.31 320.17 -61.86 304.6 -61.9 290.88 C-61.9 289.16 -61.91 287.44 -61.91 285.68 C-61.91 281.98 -61.92 278.28 -61.92 274.58 C-61.94 268.67 -61.94 262.76 -61.95 256.85 C-61.96 243.2 -61.98 229.55 -62.01 215.9 C-62.03 200.47 -62.05 185.03 -62.06 169.6 C-62.06 167.62 -62.07 165.64 -62.07 163.6 C-62.08 133.72 -61.86 103.87 -61 74 C-61.66 74 -62.32 74 -63 74 C-63.33 75.65 -63.66 77.3 -64 79 C-65.83 82.45 -67.72 85.82 -69.69 89.19 C-74.61 97.75 -79.4 106.36 -84.06 115.06 C-84.65 116.16 -85.24 117.25 -85.84 118.38 C-87.01 120.55 -88.17 122.73 -89.34 124.9 C-95.74 136.83 -102.27 148.69 -108.83 160.54 C-115.86 173.26 -122.81 186.03 -129.68 198.83 C-136.88 212.24 -144.18 225.58 -151.66 238.83 C-154.96 244.72 -158.19 250.65 -161.42 256.59 C-164.76 262.73 -168.12 268.87 -171.5 275 C-173.33 278.33 -175.17 281.67 -177 285 C-177.47 285.86 -177.95 286.72 -178.44 287.61 C-179.92 290.3 -181.4 292.99 -182.88 295.69 C-183.37 296.58 -183.86 297.47 -184.36 298.39 C-187.17 303.53 -189.88 308.71 -192.51 313.95 C-193.09 315.1 -193.67 316.26 -194.27 317.44 C-195.41 319.7 -196.53 321.96 -197.64 324.23 C-198.97 326.88 -200.47 329.45 -202 332 C-206 332 -206 332 -208.78 327.78 C-209.85 325.84 -210.9 323.89 -211.94 321.94 C-213.1 319.81 -214.27 317.68 -215.43 315.56 C-216.03 314.47 -216.62 313.37 -217.23 312.25 C-219.93 307.3 -222.72 302.4 -225.5 297.5 C-226.58 295.59 -227.66 293.67 -228.75 291.76 C-229.28 290.81 -229.82 289.86 -230.37 288.88 C-232.01 285.98 -233.65 283.08 -235.29 280.18 C-245.55 262 -255.91 243.88 -266.36 225.8 C-271.03 217.71 -275.64 209.59 -280.2 201.44 C-282.96 196.52 -285.79 191.66 -288.73 186.85 C-289.34 185.85 -289.95 184.85 -290.58 183.82 C-291.75 181.9 -292.93 179.99 -294.13 178.09 C-298.11 171.55 -298.11 171.55 -297 166 C-294.73 163.53 -294.73 163.53 -291.75 160.94 C-288.24 157.87 -284.79 154.8 -281.45 151.55 C-280.31 150.44 -279.17 149.33 -278 148.19 C-276.95 147.15 -275.9 146.11 -274.81 145.04 C-273.88 144.37 -272.96 143.69 -272 143 C-267.55 145.22 -266.9 146.33 -264.54 150.53 C-263.9 151.65 -263.27 152.77 -262.61 153.93 C-261.95 155.11 -261.3 156.29 -260.62 157.5 C-259.33 159.8 -258.03 162.1 -256.73 164.41 C-256.09 165.54 -255.46 166.67 -254.8 167.83 C-252.28 172.27 -249.64 176.63 -247 181 C-245.57 183.41 -244.14 185.82 -242.71 188.24 C-234.66 201.86 -226.56 215.43 -218.18 228.86 C-214.5 234.78 -210.9 240.76 -207.31 246.75 C-206.68 247.8 -206.05 248.85 -205.4 249.94 C-200.85 257.54 -196.37 265.19 -191.95 272.87 C-190 276 -190 276 -187 279 C-181.17 268.86 -175.61 258.58 -170.12 248.25 C-163.85 236.44 -157.48 224.7 -151 213 C-145.42 202.87 -139.85 192.72 -134.31 182.56 C-122 159.97 -109.51 137.48 -97 115 C-94.42 110.35 -91.83 105.71 -89.25 101.06 C-88.94 100.5 -88.94 100.5 -87.35 97.64 C-83.67 91.02 -80.01 84.39 -76.38 77.75 C-71.44 68.76 -66.41 59.83 -61.34 50.91 C-59.06 46.87 -56.79 42.83 -54.53 38.78 C-53.96 37.76 -53.39 36.74 -52.8 35.69 C-51.72 33.76 -50.65 31.82 -49.58 29.89 C-41.23 14.99 -20.26 -13.5 0 0 Z M-51 77 C-53.22 82.73 -53.25 88.09 -53.26 94.18 C-53.26 95.19 -53.27 96.2 -53.27 97.25 C-53.28 100.63 -53.28 104.01 -53.27 107.39 C-53.28 109.81 -53.28 112.24 -53.29 114.67 C-53.3 119.89 -53.3 125.11 -53.3 130.33 C-53.31 138.59 -53.32 146.86 -53.35 155.12 C-53.39 175.64 -53.43 196.17 -53.45 216.69 C-53.46 232.64 -53.49 248.58 -53.53 264.53 C-53.55 272.74 -53.56 280.95 -53.56 289.15 C-53.56 294.27 -53.57 299.38 -53.59 304.5 C-53.6 306.86 -53.6 309.23 -53.59 311.59 C-53.59 314.83 -53.6 318.07 -53.61 321.31 C-53.62 323.12 -53.62 324.93 -53.62 326.79 C-54.04 332.61 -55.3 337.44 -57 343 C-49.99 340.2 -49.44 337.18 -48 330 C-47.91 326.67 -47.87 323.35 -47.87 320.02 C-47.87 319 -47.87 317.99 -47.87 316.95 C-47.86 313.55 -47.87 310.15 -47.87 306.75 C-47.87 304.31 -47.87 301.87 -47.87 299.44 C-47.86 292.82 -47.86 286.2 -47.87 279.58 C-47.87 272.66 -47.87 265.74 -47.86 258.81 C-47.86 247.19 -47.86 235.57 -47.87 223.94 C-47.88 210.49 -47.87 197.05 -47.87 183.6 C-47.86 172.06 -47.86 160.52 -47.87 148.99 C-47.87 142.09 -47.87 135.2 -47.86 128.3 C-47.86 121.82 -47.86 115.34 -47.87 108.86 C-47.87 106.48 -47.87 104.1 -47.87 101.72 C-47.86 98.47 -47.87 95.23 -47.87 91.98 C-47.87 90.16 -47.87 88.35 -47.87 86.47 C-48 82 -48 82 -49 77 C-49.66 77 -50.32 77 -51 77 Z M-278 184 C-276.82 189.91 -274.17 194.35 -271.19 199.5 C-270.9 200.01 -270.9 200.01 -269.42 202.58 C-268.21 204.69 -267 206.8 -265.78 208.91 C-264.13 211.78 -262.49 214.64 -260.86 217.52 C-256.15 225.78 -251.41 234.03 -246.62 242.25 C-242.45 249.44 -238.36 256.68 -234.31 263.94 C-229.08 273.31 -223.81 282.67 -218.5 292 C-217.84 293.16 -217.18 294.33 -216.51 295.52 C-212.9 301.85 -209.26 308.09 -205 314 C-204.34 314 -203.68 314 -203 314 C-201.67 307.37 -204.32 304.19 -207.62 298.69 C-208.83 296.62 -210.04 294.55 -211.25 292.47 C-211.56 291.94 -211.56 291.94 -213.14 289.24 C-216.1 284.09 -218.89 278.86 -221.69 273.62 C-226.09 265.43 -230.66 257.37 -235.42 249.38 C-238.43 244.27 -241.34 239.11 -244.25 233.94 C-248.91 225.65 -253.64 217.4 -258.44 209.19 C-259 208.22 -259.57 207.24 -260.16 206.24 C-261.24 204.39 -262.33 202.54 -263.42 200.69 C-264.49 198.87 -265.55 197.05 -266.6 195.22 C-273.15 184 -273.15 184 -278 184 Z " fill="#052244" transform="translate(900,398)"/>
<path d="M0 0 C1.46 -0.01 2.91 -0.02 4.41 -0.02 C5.57 0.11 6.74 0.24 7.94 0.38 C18.39 31.74 -6.53 92.13 -18.06 121.38 C-18.76 123.17 -19.45 124.96 -20.17 126.81 C-37.21 169.59 -59.69 209.78 -89.06 245.38 C-89.83 246.34 -90.6 247.3 -91.39 248.29 C-99.93 258.95 -109.34 268.8 -119.06 278.38 C-121.73 281.03 -124.38 283.7 -127.01 286.39 C-133.71 293.21 -140.56 299.45 -148.06 305.38 C-150.73 307.56 -153.4 309.75 -156.06 311.94 C-207.46 353.6 -269.28 382.32 -334.06 395.38 C-335.23 395.61 -336.39 395.85 -337.59 396.1 C-345.72 397.73 -353.87 399.13 -362.06 400.38 C-362.59 400.46 -362.59 400.46 -365.27 400.88 C-383.97 403.65 -402.76 403.66 -421.62 403.69 C-422.25 403.69 -422.25 403.69 -425.4 403.7 C-467.48 403.76 -467.48 403.76 -474.06 399.38 C-472.77 392.68 -471.58 388.24 -468.06 382.38 C-463.91 382.33 -460.17 382.59 -456.06 383.06 C-426.13 385.78 -395.85 385.52 -366.06 381.38 C-365.55 381.31 -365.55 381.31 -362.96 380.95 C-285.07 370.03 -212.06 336.19 -153.06 284.38 C-152.15 283.57 -151.23 282.77 -150.29 281.95 C-143.21 275.6 -136.48 268.9 -129.75 262.19 C-128.81 261.25 -127.86 260.31 -126.89 259.34 C-121.74 254.18 -116.8 248.92 -112.06 243.38 C-111.19 242.39 -110.32 241.4 -109.43 240.38 C-102.89 232.81 -96.96 224.91 -91.17 216.75 C-89.34 214.17 -87.48 211.6 -85.58 209.06 C-61.56 176.83 -44.33 139.15 -31.06 101.38 C-30.72 100.39 -30.37 99.41 -30.01 98.39 C-20.78 71.83 -15.65 44.85 -12.02 17 C-11.79 15.27 -11.56 13.54 -11.32 11.77 C-11.13 10.22 -10.93 8.67 -10.73 7.08 C-9.41 -0.25 -6.88 -0.04 0 0 Z " fill="#042244" transform="translate(1052.0625,634.625)"/>
<path d="M0 0 C-0.2 6.38 -1.31 12.2 -4 18 C-7.54 18.66 -7.54 18.66 -12.06 18.06 C-112.41 8.22 -219.38 47.06 -296 111 C-297.01 111.83 -298.01 112.66 -299.05 113.52 C-315 126.82 -330.59 141.11 -344 157 C-344.79 157.92 -345.59 158.83 -346.41 159.78 C-404.25 227.01 -441.53 311.86 -449.45 400.39 C-450 403 -450 403 -453 405 C-456.32 405.23 -456.32 405.23 -460.12 405.19 C-461.39 405.18 -462.65 405.17 -463.95 405.17 C-467 405 -467 405 -468 404 C-468.26 395.03 -467.65 386.54 -466.31 377.69 C-466.13 376.47 -465.95 375.25 -465.76 374 C-463.96 362.23 -461.7 350.6 -459 339 C-458.74 337.85 -458.48 336.7 -458.21 335.51 C-451.26 305.42 -440.5 276.75 -427 249 C-426.66 248.3 -426.66 248.3 -424.96 244.75 C-410.12 214.42 -392.21 186.31 -371 160 C-370.24 159.05 -369.48 158.09 -368.7 157.11 C-363.87 151.11 -358.78 145.41 -353.54 139.76 C-351.54 137.59 -349.6 135.37 -347.69 133.12 C-339.7 124.19 -331.15 115.74 -322 108 C-320.89 107.03 -319.78 106.05 -318.64 105.05 C-310.65 98.04 -302.54 91.33 -294 85 C-292.67 84 -291.33 83.01 -289.96 81.98 C-272.75 69.33 -254.82 58.12 -236 48 C-234.82 47.34 -233.64 46.68 -232.43 46 C-173.61 13.43 -66.76 -22.25 0 0 Z " fill="#052244" transform="translate(662,161)"/>
<path d="M0 0 C12.67 3.51 24.96 7.77 37.23 12.49 C38.81 13.07 40.38 13.65 42 14.24 C91.59 33.13 140.07 64.57 177.23 102.49 C178.53 103.62 179.83 104.75 181.17 105.92 C188.08 111.98 194.22 118.55 200.23 125.49 C201.94 127.3 203.65 129.11 205.36 130.92 C212.2 138.36 218.17 146.41 224.23 154.49 C225.96 156.7 227.69 158.9 229.42 161.11 C278.29 224.88 308.66 310.39 312.23 390.49 C310.14 392.58 305.44 391.61 302.73 391.61 C301.18 391.61 299.62 391.62 298.02 391.62 C294.23 391.49 294.23 391.49 293.23 390.49 C292.59 385.95 291.99 381.41 291.42 376.86 C279.59 286.48 244.32 201.15 181.62 134.06 C179.54 131.82 177.54 129.5 175.55 127.17 C172.02 123.25 168.23 119.93 164.23 116.49 C162.79 115.04 161.35 113.58 159.92 112.11 C155.9 108.04 151.63 104.43 147.16 100.85 C144.1 98.38 141.14 95.81 138.17 93.24 C130.22 86.48 121.75 80.5 113.23 74.49 C112.27 73.79 111.31 73.1 110.32 72.39 C98.85 64.19 86.59 57.25 74.23 50.49 C73.17 49.89 72.11 49.3 71.01 48.69 C61.4 43.42 51.59 39.06 41.42 34.99 C39.8 34.33 38.18 33.68 36.51 33.01 C6.62 21.15 -24.87 12.8 -56.77 8.49 C-54.51 -21.93 -21.13 -5.65 0 0 Z " fill="#045CDA" transform="translate(748.765869140625,174.5146484375)"/>
<path d="M0 0 C0.78 -0 0.78 -0 4.72 -0.01 C8.5 0.12 8.5 0.12 9.5 1.12 C9.79 4.04 10.03 6.96 10.25 9.88 C14.1 51.5 25.14 93.1 42.5 131.12 C42.79 131.77 42.79 131.77 44.27 135.04 C69.24 189.42 105.6 246.18 153.92 283.08 C156.25 284.92 158.47 286.9 160.68 288.89 C165.4 293.11 170.35 296.92 175.44 300.69 C176.27 301.31 177.1 301.93 177.95 302.57 C225.42 337.94 279.72 362.37 337.74 374.19 C345.4 375.81 345.4 375.81 346.5 379.12 C345.57 382.19 345.57 382.19 344.19 385.69 C343.74 386.84 343.29 388 342.82 389.19 C341.5 392.12 341.5 392.12 339.5 394.12 C301.84 391.72 261.53 374.59 228.5 357.12 C227.69 356.72 227.69 356.72 223.61 354.65 C196.37 340.72 170.53 323.69 147.4 303.62 C144.69 301.29 141.93 299.08 139.12 296.88 C131.72 290.86 125.17 283.93 118.5 277.12 C115.85 274.46 113.18 271.81 110.48 269.18 C104.62 263.42 99.03 257.63 93.93 251.18 C92.06 248.84 90.15 246.52 88.22 244.22 C80.37 234.87 73.24 225.3 66.5 215.12 C66.09 214.53 66.09 214.53 64.02 211.49 C24.09 152.7 -12.05 73.74 -9.5 1.12 C-7.41 -0.97 -2.71 -0 0 0 Z " fill="#045CDA" transform="translate(203.5,634.875)"/>
<path d="M0 0 C3.64 3.64 5.7 6.6 8.25 11 C19.7 30.38 33 48.24 48 65 C49.24 66.42 50.48 67.85 51.75 69.31 C52.82 70.53 53.89 71.75 55 73 C55.66 73.75 56.32 74.5 57 75.28 C65.42 84.78 74.31 93.78 84 102 C84.99 102.87 85.98 103.74 87 104.63 C182.14 187.54 313.69 221.47 434.97 181.04 C447.02 176.91 458.85 172.22 470.48 167.03 C473 166 473 166 475 166 C473.27 171.2 467.33 172.23 462.56 174.25 C461.42 174.74 460.27 175.23 459.09 175.74 C455.73 177.17 452.37 178.59 449 180 C447.49 180.65 445.98 181.29 444.43 181.96 C332.4 227.98 203.83 206.24 108.75 133.56 C106.83 132.05 104.91 130.53 103 129 C102.18 128.37 101.37 127.75 100.52 127.11 C81.77 112.6 63.54 94.78 49 76 C47.42 74.14 45.84 72.29 44.25 70.44 C29.1 52.23 16.72 32.01 4.56 11.75 C4.28 11.28 4.28 11.28 2.82 8.88 C-1.12 2.23 -1.12 2.23 0 0 Z " fill="#072446" transform="translate(309,758)"/>
<path d="M0 0 C54.31 -0.78 108.08 13.33 156.64 37.12 C157.64 37.6 158.64 38.09 159.67 38.58 C186.94 51.82 212.97 68.93 235.09 89.74 C237.13 91.65 239.24 93.5 241.36 95.33 C246.1 99.52 250.6 103.89 255.08 108.37 C255.92 109.21 256.76 110.05 257.62 110.92 C263.36 116.71 268.66 122.66 273.64 129.12 C275.06 130.81 276.47 132.5 277.89 134.18 C305.64 168.18 305.64 168.18 305.64 176.12 C301.16 174.63 300.03 171.15 297.66 167.29 C292.02 158.44 285.31 150.22 278.64 142.12 C277.79 141.09 276.94 140.05 276.07 138.98 C265.59 126.46 254.24 114.35 241.35 104.27 C238.16 101.74 235.13 99.06 232.08 96.37 C212.77 79.8 191.01 66.14 168.64 54.12 C167.46 53.46 166.28 52.8 165.06 52.11 C125.06 29.96 79.81 16.2 34.64 10.12 C33.32 9.94 31.99 9.76 30.63 9.57 C18.68 8.09 6.87 7.77 -5.17 7.81 C-7.15 7.81 -9.13 7.82 -11.17 7.83 C-52.46 8.17 -92.31 16.09 -130.52 31.85 C-131.79 32.27 -133.05 32.69 -134.36 33.12 C-135.02 32.46 -135.68 31.8 -136.36 31.12 C-95.32 9.92 -45.77 1.27 0 0 Z " fill="#052244" transform="translate(625.359375,234.87890625)"/>
<path d="M0 0 C0 0.66 0 1.32 0 2 C-2.88 3.28 -5.81 4.44 -8.75 5.56 C-24.89 11.87 -40.62 19 -56 27 C-57.66 27.86 -59.33 28.72 -61.04 29.61 C-84.91 42.16 -107.4 57.6 -128 75 C-129.06 75.89 -130.13 76.78 -131.23 77.7 C-148.78 92.54 -165.57 108.36 -179.91 126.39 C-182.13 129.17 -184.44 131.86 -186.75 134.56 C-199.07 149.4 -209.28 165.4 -219 182 C-219.87 183.49 -220.75 184.98 -221.65 186.52 C-251.13 238.24 -271.02 297.81 -274.38 357.49 C-274.59 358.98 -274.79 360.47 -275 362 C-276.32 362.33 -277.64 362.66 -279 363 C-296.76 309.73 -243.2 206.69 -214 164 C-213.37 163.03 -212.75 162.07 -212.1 161.07 C-203.9 148.45 -194.69 136.5 -185 125 C-184.56 124.47 -184.56 124.47 -182.3 121.78 C-169.52 106.66 -156.07 91.88 -141 79 C-139.95 78.08 -138.89 77.16 -137.81 76.21 C-130.43 69.8 -122.92 63.73 -115 58 C-113.8 57.11 -112.59 56.22 -111.35 55.3 C-84.54 35.86 -34.63 0 0 0 Z " fill="#052345" transform="translate(503,212)"/>
<path d="M0 0 C0.99 0.33 1.98 0.66 3 1 C7.13 80.54 -41.63 169.32 -90 229 C-90.33 229.41 -90.33 229.41 -91.97 231.5 C-105.88 248.95 -122.09 265.45 -139 280 C-139.49 280.43 -139.49 280.43 -141.99 282.63 C-185.61 320.34 -238.32 346.68 -294 361 C-292.54 356.62 -290.36 356.82 -286.05 355.43 C-284.6 354.95 -283.14 354.47 -281.63 353.98 C-280.06 353.47 -278.49 352.96 -276.88 352.44 C-256.79 345.75 -237.8 337.77 -219 328 C-217.65 327.32 -216.3 326.63 -214.91 325.93 C-192.87 314.57 -172.27 300.57 -153 285 C-152.06 284.25 -151.11 283.5 -150.14 282.73 C-138.6 273.48 -128.09 263.18 -117.62 252.75 C-117.16 252.28 -117.16 252.28 -114.78 249.92 C-48.85 183.84 -12.98 95.25 -1.48 3.96 C-1 1 -1 1 0 0 Z " fill="#072447" transform="translate(1028,632)"/>
<path d="M0 0 C8.25 0.85 15.55 3.24 23.38 5.88 C24.83 6.36 26.29 6.85 27.79 7.36 C46.79 13.85 65.27 21.55 83 31 C83.81 31.43 83.81 31.43 87.92 33.62 C97.9 39.02 107.59 44.66 117 51 C118.31 51.88 119.61 52.75 120.96 53.65 C129.54 59.48 137.87 65.55 146 72 C146.92 72.73 147.84 73.45 148.79 74.2 C155.07 79.24 160.99 84.59 166.86 90.08 C169.63 92.65 172.43 95.18 175.25 97.69 C182.69 104.36 189.47 111.44 196 119 C197.58 120.71 199.17 122.42 200.75 124.12 C206.53 130.47 211.78 137.18 217 144 C217.97 145.25 218.94 146.5 219.94 147.78 C265.77 207.54 302.25 293.6 300 370 C299.01 370 298.02 370 297 370 C295.89 366.68 295.57 363.7 295.2 360.22 C288.13 295.35 269.5 232.27 234 177 C233.63 176.41 233.63 176.41 231.77 173.42 C220.76 155.89 208.2 139.79 194.27 124.51 C192.42 122.47 190.62 120.39 188.82 118.3 C184.56 113.51 180.11 108.96 175.56 104.44 C174.75 103.63 173.95 102.81 173.12 101.98 C168.24 97.11 163.23 92.49 158 88 C156.95 87.07 155.9 86.14 154.82 85.18 C140.8 72.9 125.68 62.07 110 52 C109.24 51.51 109.24 51.51 105.42 49.02 C73.46 28.69 39.18 13.58 2.8 3.04 C1.87 2.7 0.95 2.35 0 2 C0 1.34 0 0.68 0 0 Z " fill="#062446" transform="translate(731,204)"/>
<path d="M0 0 C3 1 3 1 3.65 3.84 C3.78 5.09 3.92 6.33 4.05 7.61 C4.21 8.98 4.36 10.35 4.53 11.75 C4.68 13.15 4.84 14.56 5 16 C10.32 55.48 20.14 93.77 37 130 C37.46 130.99 37.92 131.99 38.39 133.01 C54.58 167.85 74.47 199.4 99 229 C99.63 229.8 100.26 230.61 100.92 231.44 C107.26 239.43 114.31 246.58 121.56 253.75 C122.74 254.93 123.92 256.11 125.14 257.32 C141.12 273.23 158.55 287.06 177 300 C178.17 300.83 179.35 301.66 180.56 302.51 C197.43 314.09 215.53 324.22 234 333 C235.45 333.71 236.89 334.43 238.38 335.16 C248.31 339.99 258.33 344.22 268.7 347.99 C275.89 350.68 275.89 350.68 277 354 C224.96 339.1 177.53 309.27 137 274 C135.54 272.74 134.07 271.48 132.56 270.19 C128.9 266.91 125.47 263.47 122 260 C121.5 259.6 121.5 259.6 119 257.56 C115.25 254.36 112.22 250.73 109 247 C108.36 246.37 108.36 246.37 105.12 243.19 C101.22 239.23 97.74 235.16 94.27 230.83 C92.83 229.03 91.37 227.25 89.89 225.48 C63.07 193.52 41.61 155.65 26 117 C25.32 115.34 24.65 113.68 23.95 111.97 C10.33 77.48 -1 38.32 -1 1 C-0.67 0.67 -0.34 0.34 0 0 Z " fill="#072447" transform="translate(225,632)"/>
<path d="M0 0 C5.99 2.99 10.15 7.7 14.88 12.38 C15.38 12.85 15.38 12.85 17.91 15.28 C18.84 16.21 19.78 17.13 20.74 18.09 C21.17 18.51 21.17 18.51 23.36 20.65 C23.9 21.43 24.44 22.2 25 23 C22.01 28.99 17.3 33.15 12.62 37.88 C12.15 38.38 12.15 38.38 9.72 40.91 C8.79 41.84 7.87 42.78 6.91 43.74 C6.49 44.17 6.49 44.17 4.35 46.36 C3.57 46.9 2.8 47.44 2 48 C-2.64 45.68 -5.26 42.9 -8.88 39.19 C-12.28 35.7 -15.57 32.34 -19.38 29.3 C-22 27 -22 27 -23 23 C-19.75 18.63 -15.69 14.95 -11.81 11.12 C-10.74 10.03 -9.68 8.93 -8.58 7.8 C-7.55 6.78 -6.52 5.75 -5.46 4.7 C-4.51 3.75 -3.56 2.8 -2.58 1.82 C-1.73 1.22 -0.88 0.62 0 0 Z " fill="#052244" transform="translate(1051,579)"/>
<path d="M0 0 C4.36 2.18 5.95 4.28 9 8 C9.78 8.62 10.57 9.24 11.38 9.88 C15.05 12.85 17.93 16.41 21 20 C21.99 20.99 22.98 21.98 24 23 C21.23 28.54 17.22 32.5 13 37 C12.04 38.05 11.09 39.09 10.1 40.17 C9.14 41.19 8.18 42.2 7.19 43.25 C6.29 44.2 5.4 45.16 4.48 46.14 C4.07 46.45 4.07 46.45 2 48 C-2.83 45.58 -5.96 42.47 -9.88 38.75 C-11.25 37.45 -12.63 36.14 -14.05 34.8 C-15.36 33.54 -16.66 32.29 -18 31 C-19.2 29.93 -20.4 28.87 -21.63 27.77 C-22.41 26.85 -23.2 25.94 -24 25 C-22 20.99 -20.01 19.17 -16.62 16.36 C-11.85 12.07 -7.55 7.3 -3.17 2.62 C-2.65 2.19 -2.65 2.19 0 0 Z " fill="#052345" transform="translate(202,579)"/>
<path d="M0 0 C-0.33 0.16 -0.33 0.16 -2 1 C-2 1.66 -2 2.32 -2 3 C-4.94 4.24 -7.93 5.37 -10.94 6.44 C-11.77 6.74 -11.77 6.74 -15.96 8.25 C-20.63 9.87 -25.31 11.45 -30 13 C-30 12.01 -30 11.02 -30 10 C-25.95 8.1 -21.97 6.42 -17.81 4.81 C-16.66 4.35 -15.51 3.89 -14.33 3.41 C-9.16 1.38 -5.63 0 0 0 Z " fill="#4B688B" transform="translate(520,255)"/>
</svg>
